<?xml version="1.0" encoding="utf-8"?>
<!-- Generator: Adobe Illustrator 27.5.0, SVG Export Plug-In . SVG Version: 6.00 Build 0)  -->
<svg version="1.1" id="Layer_1" xmlns="http://www.w3.org/2000/svg" xmlns:xlink="http://www.w3.org/1999/xlink" x="0px" y="0px"
	 viewBox="0 0 300 120" style="enable-background:new 0 0 300 120;" xml:space="preserve">
<style type="text/css">
	.st0{fill:#FFFFFF;}
	.st1{fill:#F5AC00;}
	.st2{fill:#222222;}
</style>
<rect class="st0" width="300" height="120"/>
<g id="logo">
	<g>
		<g>
			<path class="st1" d="M60.25,94.53l5.44-4.18c-0.25-0.37-0.51-0.74-0.75-1.12c-1.44-2.25-2.7-4.6-3.77-7.05
				c-1.08-2.43-1.96-4.95-2.63-7.53c-1.35-5.15-1.91-10.47-1.64-15.79c0.47-10.64,4.26-20.87,10.85-29.25
				c13.33-17.09,35.99-23.91,56.54-17.01c8.83,2.95,16.67,8.26,22.7,15.35l7.29-5.6c-3.13-3.78-6.74-7.15-10.72-10.02
				c-2.5-1.81-5.13-3.44-7.87-4.85c-1.4-0.65-2.76-1.38-4.2-1.93l-2.14-0.87l-2.19-0.75c-11.8-3.84-24.5-3.92-36.36-0.25
				c-11.8,3.7-22.16,11-29.61,20.88c-1.85,2.44-3.5,5.02-4.96,7.71c-1.44,2.7-2.67,5.5-3.7,8.38c-6.16,17.53-3.69,36.93,6.67,52.36
				C59.53,93.52,59.89,94.02,60.25,94.53z"/>
			<path class="st2" d="M143.05,101.34c-2.13,1.74-4.38,3.31-6.74,4.72c-14.28,8.42-31.67,9.71-47.04,3.48
				c-2.49-1.01-4.9-2.23-7.2-3.63c-2.3-1.38-4.5-2.94-6.56-4.66c-1.91-1.61-3.72-3.35-5.4-5.21l-5.32,4.08
				c14.59,15.82,36.74,22.26,57.53,16.73c11.52-3.09,21.78-9.7,29.36-18.91l-2.67-2.29C147.16,97.68,145.17,99.58,143.05,101.34z"/>
		</g>
		<path class="st2" d="M99.01,75.13h24.42v7.68h-32.9V39.2h32.59v7.69H99.01v10.1h21.38v7.69H99.01V75.13z M215.86,70.57
			c0,7.44-5.82,12.25-14.82,12.25h-20.22V39.2h19.62c8.81,0,14.5,4.47,14.5,11.4c0.14,3.93-1.97,7.61-5.43,9.48
			C213.73,61.88,215.86,65.4,215.86,70.57L215.86,70.57z M189.18,57.16h9.74c2.82,0,7.55-0.7,7.55-5.35c0-3.22-2.49-4.99-7-4.99
			h-10.29V57.16z M207.87,69.78c0-2.62-0.87-5.29-7.31-5.29h-11.38v10.71h11.93C205.78,75.19,207.87,73.52,207.87,69.78
			L207.87,69.78z M265.16,60.95c0,12.66-9.65,22.21-22.45,22.21c-12.73,0-22.34-9.5-22.34-22.09c0-12.66,9.65-22.21,22.45-22.21
			C255.56,38.85,265.16,48.35,265.16,60.95L265.16,60.95z M256.45,61.07c0-8.25-5.91-14.47-13.75-14.47
			c-7.77,0-13.63,6.17-13.63,14.35c0,8.25,5.91,14.46,13.75,14.46C250.59,75.41,256.45,69.24,256.45,61.07L256.45,61.07z
			 M151.94,58.94l-12.7-19.74h-8.74v43.62h8.36V53.5l13.03,19.43h0.02l13-19.56v29.45h8.48V39.2h-8.74L151.94,58.94z"/>
	</g>
</g>
</svg>
